<svg width="162" height="154" viewBox="0 0 162 154" fill="none" xmlns="http://www.w3.org/2000/svg">
<path d="M94.4743 62.3618L85.5183 71.8261H75.8863L67.9417 61.8533L73.5176 0L90.5911 0.167685L94.4743 62.3618Z" fill="#C6D0D2"/>
<path d="M103.351 88.6294L91.6256 82.9454L88.7214 73.7624L95.8279 63.1785L156.486 49.8311L161.472 66.1584L103.351 88.6294Z" fill="#C6D0D2"/>
<path d="M57.6621 88.8343L69.5006 83.3829L72.5886 74.2593L65.6877 63.5403L5.31097 48.9868L0 65.2114L57.6621 88.8343Z" fill="#C6D0D2"/>
<path d="M81.4736 105.6L83.2205 92.6851L91.0408 87.0605L103.312 90.5219L134.89 143.998L120.932 153.825L81.4736 105.6Z" fill="#C6D0D2"/>
<path d="M57.6335 89.4135L70.467 87.1475L78.2009 92.8856L78.6443 105.627L37.315 151.992L23.7079 141.684L57.6335 89.4135Z" fill="#C6D0D2"/>
<path d="M92.5666 85.9843L80.5497 94.6158L68.7274 85.8275L73.4325 71.7607L88.1643 71.8581L92.5666 85.9843Z" fill="#C6D0D2"/>
</svg>
