<svg width="1357" height="443" viewBox="0 0 1357 443" fill="none" xmlns="http://www.w3.org/2000/svg">
<path d="M1302.81 360.457L1320.83 343.329C1320.83 343.329 1322.41 356.622 1319.93 367.217L1291.31 367.666L1290.41 364.513C1290.41 364.513 1273.51 367.444 1271.71 368.796C1269.91 370.148 1262.69 375.108 1254.13 375.329C1245.57 375.556 1231.37 376.908 1231.37 376.908L1220.78 365.865L1302.81 360.457Z" fill="#070606"/>
<path d="M1355.37 282.26C1355.37 282.26 1354.69 320.626 1356.72 321.81C1358.75 322.995 1350.13 351.555 1321.9 357.304C1293.67 363.053 1253.62 367.445 1253.62 367.445L1316.66 303.558L1328.83 283.277L1355.37 282.26Z" fill="#191717"/>
<path d="M389.161 146.379C389.161 146.379 545.322 55.4514 623.232 32.6396L640.976 36.5281V43.9643L426.336 155.849L389.161 146.379Z" fill="#191717"/>
<path d="M147.032 388.623L197.961 400.342L393.558 394.031L1151.61 390.424L1213.8 365.638L1229.35 373.074L1244.45 301.189C1244.45 301.189 1224.62 267.388 1224.17 266.036C1223.72 264.683 1121.41 207.449 1121.41 207.449H1013.25L350.298 254.77L256.558 220.066L145.242 280.005L147.032 388.623Z" fill="#29292D"/>
<path d="M1182.81 43.7969C1182.81 43.7969 1271.48 91.1725 1312.95 125.428L1191.71 110.107L1106.98 56.4736L1134.47 46.1061L1182.81 43.7969Z" fill="#191717"/>
<path d="M1355.08 252.969C1355.08 252.969 1350.35 251.39 1340.66 245.305C1334.58 227.956 1327.59 226.377 1324.88 219.168C1322.18 211.959 1328.71 181.083 1328.71 176.129C1328.71 171.17 1335.25 165.989 1335.25 165.989C1335.92 153.145 1328.71 128.359 1325.55 127.229C1322.4 126.104 1243.98 113.935 1220.77 109.203C1197.56 104.471 1123.48 57.9932 1123.48 57.9932L1182.8 43.7967L1188.02 46.6144C1189.59 40.5789 1198.66 39.1024 1198.35 37.5449C1198.01 35.8521 1188.88 35.8521 1178.74 34.5C1168.6 33.148 1106.07 23.3429 1099.98 23.3429C1093.9 23.3429 1039.14 14.89 1004.67 12.8619C970.189 10.8339 896.951 6.43701 842.42 6.43701C787.89 6.43701 736.285 10.4931 703.609 14.9981C670.932 19.5031 623.216 32.6288 623.216 32.6288L633.865 38.5454C557.81 65.2509 467.223 125.417 449.987 133.865C432.751 142.312 420.242 144.346 403.341 144.681C386.441 145.016 349.259 143.329 349.259 143.329C349.259 143.329 306.329 148.061 262.388 153.134C218.446 158.207 164.592 166.654 109.607 180.851C54.6216 195.047 2.5679 231.78 2.5679 231.78V236.285V236.961C2.5679 236.961 19.9173 246.425 20.8205 250.708C21.7237 254.992 22.1725 256.792 11.805 275.948C-1.0394 301.637 4.48241 332.621 4.48241 332.621L7.52715 343.102L10.9073 344.118C10.9073 344.118 14.6281 354.599 16.9915 362.371C6.17511 362.03 1.44302 371.835 1.77832 375.215C2.11363 378.595 40.9876 392.116 48.4239 392.792C55.8601 393.468 152.872 393.582 152.872 393.582C152.872 393.582 136.361 243.726 266.444 236.744C400.745 229.535 392.633 387.27 392.633 387.27L995.645 382.311C995.645 382.311 983.028 235.841 1108.54 229.979C1232.12 224.208 1229.32 373.068 1229.32 373.068L1256.36 367.66C1256.36 367.66 1318.33 308.397 1326.9 296.451C1335.46 284.509 1355.52 284.282 1355.52 284.282C1355.54 279.334 1355.08 252.969 1355.08 252.969Z" fill="#DD2A37"/>
<path d="M273.675 442.705C328.433 442.705 372.823 398.314 372.823 343.556C372.823 288.798 328.433 244.408 273.675 244.408C218.917 244.408 174.526 288.798 174.526 343.556C174.526 398.314 218.917 442.705 273.675 442.705Z" fill="#070606"/>
<path d="M273.675 424.452C318.353 424.452 354.571 388.234 354.571 343.557C354.571 298.879 318.353 262.661 273.675 262.661C228.998 262.661 192.78 298.879 192.78 343.557C192.78 388.234 228.998 424.452 273.675 424.452Z" fill="#A9A290"/>
<path d="M273.675 418.595C315.118 418.595 348.714 384.999 348.714 343.557C348.714 302.114 315.118 268.518 273.675 268.518C232.233 268.518 198.637 302.114 198.637 343.557C198.637 384.999 232.233 418.595 273.675 418.595Z" fill="#1E1D22"/>
<path d="M272.832 395.21C301.081 395.21 323.982 372.309 323.982 344.059C323.982 315.81 301.081 292.909 272.832 292.909C244.582 292.909 221.681 315.81 221.681 344.059C221.681 372.309 244.582 395.21 272.832 395.21Z" fill="#EEEDF3"/>
<path d="M273 380.619C293.095 380.619 309.386 364.328 309.386 344.233C309.386 324.137 293.095 307.847 273 307.847C252.904 307.847 236.613 324.137 236.613 344.233C236.613 364.328 252.904 380.619 273 380.619Z" fill="#1E1D22"/>
<path d="M298.53 299.739L298.974 313.936C298.974 313.936 300.499 322.816 301.846 326.494C303.192 330.171 304.539 337.434 304.982 340.755C305.426 344.076 304.89 355.644 303.1 359.5C301.305 363.356 300.677 365.865 299.872 370.711C299.066 375.551 298.168 382.458 298.168 383.177C298.168 383.896 297.184 387.125 300.05 389.364C302.922 391.608 309.017 387.839 310.991 384.253C312.965 380.667 320.677 372.323 321.932 369.543C323.186 366.763 326.145 362.994 324.982 361.29C324.982 361.29 327.762 354.562 327.762 348.554C327.762 342.545 327.226 331.869 324.625 326.131C322.023 320.393 319.963 315.369 316.464 310.886C312.965 306.402 302.203 298.149 302.203 298.149L298.53 299.739Z" fill="#DD2A37"/>
<path d="M1111.04 442.705C1165.8 442.705 1210.19 398.314 1210.19 343.556C1210.19 288.798 1165.8 244.408 1111.04 244.408C1056.28 244.408 1011.89 288.798 1011.89 343.556C1011.89 398.314 1056.28 442.705 1111.04 442.705Z" fill="#070606"/>
<path d="M1111.04 424.452C1155.72 424.452 1191.93 388.234 1191.93 343.557C1191.93 298.879 1155.72 262.661 1111.04 262.661C1066.36 262.661 1030.14 298.879 1030.14 343.557C1030.14 388.234 1066.36 424.452 1111.04 424.452Z" fill="#A9A290"/>
<path d="M1111.04 418.595C1152.48 418.595 1186.08 384.999 1186.08 343.557C1186.08 302.114 1152.48 268.518 1111.04 268.518C1069.6 268.518 1036 302.114 1036 343.557C1036 384.999 1069.6 418.595 1111.04 418.595Z" fill="#1E1D22"/>
<path d="M1111.89 395.21C1140.14 395.21 1163.04 372.309 1163.04 344.059C1163.04 315.81 1140.14 292.909 1111.89 292.909C1083.64 292.909 1060.74 315.81 1060.74 344.059C1060.74 372.309 1083.64 395.21 1111.89 395.21Z" fill="#EEEDF3"/>
<path d="M1111.72 380.619C1131.81 380.619 1148.1 364.328 1148.1 344.233C1148.1 324.137 1131.81 307.847 1111.72 307.847C1091.62 307.847 1075.33 324.137 1075.33 344.233C1075.33 364.328 1091.62 380.619 1111.72 380.619Z" fill="#1E1D22"/>
<path d="M1086.18 299.739L1085.74 313.936C1085.74 313.936 1084.21 322.816 1082.87 326.494C1081.52 330.171 1080.18 337.434 1079.73 340.755C1079.28 344.076 1079.82 355.644 1081.61 359.5C1083.41 363.356 1084.04 365.865 1084.84 370.711C1085.65 375.551 1086.55 382.458 1086.55 383.177C1086.55 383.896 1087.53 387.125 1084.66 389.364C1081.8 391.603 1075.7 387.839 1073.72 384.253C1071.75 380.667 1064.04 372.323 1062.78 369.543C1061.53 366.763 1058.57 362.994 1059.73 361.29C1059.73 361.29 1056.95 354.562 1056.95 348.554C1056.95 342.545 1057.49 331.869 1060.09 326.131C1062.69 320.393 1064.75 315.369 1068.25 310.886C1071.75 306.402 1082.51 298.149 1082.51 298.149L1086.18 299.739Z" fill="#DD2A37"/>
<path d="M454.399 158.775C454.399 158.775 572.476 61.8763 684.696 42.0499C796.915 22.2182 902.824 30.7847 966.824 39.7948C1030.82 48.8102 1088.96 72.6927 1095.72 84.8611C1095.72 84.8611 1074.53 111.453 1045.69 118.662C1016.85 125.871 692.808 154.264 623.405 158.775C553.996 163.28 454.399 158.775 454.399 158.775Z" fill="#2E2E2E"/>
<path d="M40.4465 313.135C40.4465 313.135 54.194 307.727 59.8239 310.204C65.4593 312.681 102.976 352.004 104.214 356.736C105.453 361.468 91.0292 365.865 86.297 366.314C81.5648 366.763 59.9321 368.455 55.3135 367.217C50.6949 365.979 51.2574 361.133 51.2574 361.133C51.2574 361.133 43.0316 346.147 38.6401 332.064L40.4465 313.135Z" fill="#070606"/>
<path d="M21.7451 255.56C21.7451 255.56 28.1701 263.337 37.2937 264.689C46.4173 266.041 86.1944 255.901 120.444 241.477C154.694 227.053 191.654 207.903 188.047 202.268C184.439 196.632 150.189 199.791 129.006 205.421C107.822 211.056 30.9824 234.938 14.7578 243.954C14.7578 243.954 23.5461 247.783 21.7451 255.56Z" fill="#EEEDF3"/>
<path d="M1324.61 158.213C1324.61 158.213 1326.3 173.594 1317.01 179.337C1307.71 185.081 1287.6 186.606 1270.02 181.533C1252.44 176.46 1202.93 148.916 1202.59 140.804C1202.24 132.692 1279.65 139.619 1292.16 143C1304.67 146.38 1321.57 155.168 1324.61 158.213Z" fill="#A0051F"/>
<path d="M449.316 369.699L448.986 369.51C448.684 369.337 441.561 365.124 438.273 356.898C433.465 337.731 433.022 296.262 432.73 268.82C432.627 259.583 432.546 251.601 432.318 246.717C431.421 227.421 436.099 178.758 437.743 169.353L437.986 168.785C442.572 162.55 450.155 158.396 453.319 156.844L441.091 137.867L443.362 136.401L457.299 158.028L455.828 158.656C455.725 158.699 445.742 163.015 440.35 170.132C438.668 180.191 434.136 227.653 435.012 246.587C435.244 251.525 435.331 259.524 435.428 268.788C435.72 296.105 436.164 337.38 440.836 356.065C443.367 362.371 448.711 366.119 450.041 366.984C466.152 366.676 923.322 357.974 932.57 357.974C942.71 357.974 957.929 351.668 967.436 333.902C968.669 331.593 970.005 329.057 971.438 326.32C982.13 305.942 998.29 275.148 1021.03 249.811C1040.31 228.324 1060.05 201.121 1078.11 171.149C1090.27 150.965 1096.05 139.446 1096.86 133.8C1097.74 127.678 1096.41 91.0319 1096.4 90.6588C1096.4 89.5879 1096.07 86.673 1094.62 85.4399L1096.37 83.3794C1099.03 85.6346 1099.1 90.1072 1099.1 90.6047C1099.16 92.0703 1100.45 127.818 1099.54 134.178C1098.67 140.279 1092.95 151.755 1080.43 172.539C1062.3 202.657 1042.45 230.001 1023.05 251.612C1000.53 276.695 984.472 307.31 973.839 327.569C972.401 330.311 971.065 332.864 969.827 335.173C959.767 353.978 943.986 360.673 932.575 360.673C923.23 360.673 454.433 369.596 449.695 369.688L449.316 369.699Z" fill="#8C1321"/>
<path d="M770.168 363.129C770.168 363.129 763.068 341.145 761.715 336.743C760.688 333.406 761.542 329.268 762.83 323.011C763.408 320.215 764.079 316.965 764.717 313.141C766.426 258.005 773.035 213.761 776.209 192.49C779.557 170.062 784.96 144.666 785.009 144.411L809.686 30.499L812.325 31.0669L787.648 144.979C787.594 145.228 782.213 170.549 778.876 192.89C775.712 214.101 769.119 258.243 767.399 313.401C766.734 317.441 766.058 320.724 765.48 323.557C764.274 329.404 763.479 333.271 764.301 335.948C765.653 340.339 772.748 362.291 772.748 362.291L770.168 363.129Z" fill="#8C1321"/>
<path d="M2.59054 236.966C2.59054 236.966 2.47697 252.856 4.61861 270.432C0.4489 270.319 0.448921 270.319 0.448921 270.319L0 308.062H4.16969L16.6788 257.588L2.59054 236.966Z" fill="#070606"/>
<path d="M1158.7 196.069C1143.98 196.069 1132 184.09 1132 169.364C1132 154.637 1143.98 142.658 1158.7 142.658C1173.43 142.658 1185.41 154.637 1185.41 169.364C1185.41 184.09 1173.43 196.069 1158.7 196.069ZM1158.7 145.368C1145.47 145.368 1134.7 156.135 1134.7 169.369C1134.7 182.603 1145.46 193.371 1158.7 193.371C1171.94 193.371 1182.7 182.603 1182.7 169.369C1182.7 156.135 1171.94 145.368 1158.7 145.368Z" fill="#8C1321"/>
<path d="M1180.12 251.314L1178.74 248.988L1199.34 236.695L1233.65 165.064L1236.09 166.232L1201.44 238.594L1180.12 251.314Z" fill="#8C1321"/>
<path d="M1028.56 14.3335C1028.56 14.3335 1045.24 -5.04398 1087.83 1.26196C1084.45 11.4023 1082.87 12.3054 1082.87 12.3054L1088.28 23.1218L1028.56 14.3335Z" fill="#DD2A37"/>
<path d="M521.099 157.423L531.915 121.821C531.915 121.821 613.038 65.0347 683.344 52.4175C753.65 39.8002 785.651 40.2491 785.651 40.2491L753.71 143.68C753.71 143.68 613.941 157.428 582.395 157.428C550.844 157.423 521.099 157.423 521.099 157.423Z" fill="#191717"/>
<path d="M564.138 115.958C564.138 115.958 609.431 85.0885 666.893 69.7618C712.43 57.6204 760.86 53.7644 763.564 55.4517C766.268 57.1391 775.733 60.8599 774.721 71.0003C773.71 81.1406 753.71 143.675 753.71 143.675C753.71 143.675 589.832 158.889 542.51 153.14L564.138 115.958Z" fill="#CCF2FB"/>
<path d="M837.028 39.3462L820.355 139.846L992.514 121.367L1001.53 56.4685C1001.53 56.4685 933.921 41.596 837.028 39.3462Z" fill="#191717"/>
<path d="M1008.74 56.4683L1000.85 120.918C1000.85 120.918 1040.74 116.185 1045.7 114.606C1050.66 113.027 1059.45 108.749 1059.45 108.749L1063.27 74.7209C1063.27 74.7209 1041.41 63.4556 1008.74 56.4683Z" fill="#191717"/>
<path d="M835.001 59.3998C835.001 59.3998 838.154 54.2188 842.664 54.2188C845.087 54.2188 883.788 54.4784 921.705 58.329C954.327 61.6442 987.111 68.637 987.111 68.637L979.226 123.168L820.134 138.603L835.001 59.3998Z" fill="#CCF2FB"/>
<path d="M523.182 151.788C523.182 151.788 517.266 139.955 517.098 134.044C516.93 128.133 544.534 106.949 563.462 112.13C572.927 115.283 577.659 119.117 577.659 120.356C577.659 121.594 577.772 146.385 571.126 154.157C566.729 157.088 552.424 160.241 552.424 160.241C552.424 160.241 553.776 173.085 551.862 176.693C549.947 180.3 547.357 184.015 533.836 182.328C520.316 180.641 516.708 171.739 517.271 170.273C517.833 168.808 524.821 160.36 524.821 157.088C524.821 153.816 523.182 151.788 523.182 151.788Z" fill="#DD2A37"/>
<path d="M1341.79 293.303C1341.79 293.303 1323.54 298.711 1320.61 316.964C1337.06 316.515 1337.06 316.515 1337.06 316.515L1341.79 293.303Z" fill="#070606"/>
<path d="M13.8014 244.235C13.8014 244.235 2.36303 275.051 3.71507 310.204L23.2062 256.799C23.2062 256.799 23.4333 248.573 23.2062 248.237C22.9844 247.897 13.8014 244.235 13.8014 244.235Z" fill="#070606"/>
<g opacity="0.21">
<path d="M382.964 260.178C382.964 260.178 410.005 250.038 467.467 245.981C524.929 241.925 762.213 220.969 856.856 223.673C951.499 226.377 962.992 223.673 990.709 249.362C1006.26 264.234 1013.02 262.882 1016.4 258.826C1019.78 254.77 1035.33 238.545 1035.33 238.545C1035.33 238.545 1011.67 204.068 937.979 199.336C864.292 194.604 450.567 210.152 353.896 238.545C353.896 238.545 373.5 250.714 382.964 260.178Z" fill="#EEF7F6"/>
</g>
<g opacity="0.21">
<path d="M510.51 346.482C510.51 346.482 528.763 351.89 551.072 350.538C573.38 349.186 748.47 337.018 816.072 328.906C883.675 320.793 961.417 309.301 956.009 301.865C950.601 294.428 556.48 332.962 510.51 346.482Z" fill="#EEF7F6"/>
</g>
<path d="M272.323 327.894C274.936 327.894 277.055 325.776 277.055 323.162C277.055 320.549 274.936 318.43 272.323 318.43C269.709 318.43 267.591 320.549 267.591 323.162C267.591 325.776 269.709 327.894 272.323 327.894Z" fill="#1E1D22"/>
<path d="M254.07 343.102C256.684 343.102 258.802 340.983 258.802 338.37C258.802 335.756 256.684 333.638 254.07 333.638C251.457 333.638 249.338 335.756 249.338 338.37C249.338 340.983 251.457 343.102 254.07 343.102Z" fill="#1E1D22"/>
<path d="M261.393 365.411C264.007 365.411 266.125 363.292 266.125 360.679C266.125 358.065 264.007 355.947 261.393 355.947C258.78 355.947 256.661 358.065 256.661 360.679C256.661 363.292 258.78 365.411 261.393 365.411Z" fill="#1E1D22"/>
<path d="M283.139 364.962C285.753 364.962 287.872 362.844 287.872 360.23C287.872 357.617 285.753 355.498 283.139 355.498C280.526 355.498 278.407 357.617 278.407 360.23C278.407 362.844 280.526 364.962 283.139 364.962Z" fill="#1E1D22"/>
<path d="M290.689 342.427C293.303 342.427 295.421 340.308 295.421 337.695C295.421 335.081 293.303 332.962 290.689 332.962C288.076 332.962 285.957 335.081 285.957 337.695C285.957 340.308 288.076 342.427 290.689 342.427Z" fill="#1E1D22"/>
<path d="M1112.06 327.894C1114.67 327.894 1116.79 325.776 1116.79 323.162C1116.79 320.549 1114.67 318.43 1112.06 318.43C1109.44 318.43 1107.32 320.549 1107.32 323.162C1107.32 325.776 1109.44 327.894 1112.06 327.894Z" fill="#1E1D22"/>
<path d="M1093.8 343.102C1096.42 343.102 1098.54 340.983 1098.54 338.37C1098.54 335.756 1096.42 333.638 1093.8 333.638C1091.19 333.638 1089.07 335.756 1089.07 338.37C1089.07 340.983 1091.19 343.102 1093.8 343.102Z" fill="#1E1D22"/>
<path d="M1101.13 365.411C1103.74 365.411 1105.86 363.292 1105.86 360.679C1105.86 358.065 1103.74 355.947 1101.13 355.947C1098.51 355.947 1096.39 358.065 1096.39 360.679C1096.39 363.292 1098.51 365.411 1101.13 365.411Z" fill="#1E1D22"/>
<path d="M1122.87 364.962C1125.49 364.962 1127.6 362.844 1127.6 360.23C1127.6 357.617 1125.49 355.498 1122.87 355.498C1120.26 355.498 1118.14 357.617 1118.14 360.23C1118.14 362.844 1120.26 364.962 1122.87 364.962Z" fill="#1E1D22"/>
<path d="M1130.42 342.427C1133.04 342.427 1135.15 340.308 1135.15 337.695C1135.15 335.081 1133.04 332.962 1130.42 332.962C1127.81 332.962 1125.69 335.081 1125.69 337.695C1125.69 340.308 1127.81 342.427 1130.42 342.427Z" fill="#1E1D22"/>
</svg>
