<svg width="1442" height="553" viewBox="0 0 1442 553" fill="none" xmlns="http://www.w3.org/2000/svg">
<path d="M1030.19 480.347L1254.63 444.177L1274.23 445.194L1275.58 364.747L1210.68 308.637L1116.72 290.72L1054.18 312.693L1019.03 370.155C1019.03 370.155 1012.95 434.718 1012.95 436.405C1012.95 438.093 1030.19 480.347 1030.19 480.347Z" fill="#1E1D22"/>
<path d="M131.973 481.699L140.535 469.531L151.692 476.291L395.4 480.347L392.356 400.577L373.427 349.534C373.427 349.534 346.386 313.029 340.637 313.029C334.888 313.029 253.43 303.224 251.062 303.224C248.693 303.224 192.583 317.421 192.583 317.421C192.583 317.421 151.681 338.377 150.67 339.394C149.658 340.411 128.696 380.972 128.361 383C128.025 385.028 123.964 432.691 123.629 434.043C123.293 435.395 131.973 481.699 131.973 481.699Z" fill="#1E1D22"/>
<path d="M262.672 552.454C320.916 552.454 368.132 505.238 368.132 446.994C368.132 388.75 320.916 341.535 262.672 341.535C204.429 341.535 157.213 388.75 157.213 446.994C157.213 505.238 204.429 552.454 262.672 552.454Z" fill="#14100F"/>
<path d="M131.974 481.7L13.4427 463.674C13.4427 463.674 4.65443 454.886 9.38658 440.916L3.75126 397.878L0.376553 392.237C0.376553 392.237 -2.77642 353.704 9.16485 333.423C9.16485 333.423 28.5424 295.566 39.813 282.722C51.0782 269.877 62.5706 255.908 126.117 234.951C189.663 213.995 264.929 207.683 264.929 207.683C264.929 207.683 314.727 207.91 324.646 205.655C334.559 203.4 508.637 89.6065 568.127 60.8728C563.395 57.4927 555.283 55.4646 555.283 55.4646C555.283 55.4646 665.588 19.749 1080.22 19.749C1206.41 21.5499 1268.6 17.0449 1296.54 35.5247L1310.51 54.0044C1310.51 54.0044 1365.5 107.183 1404.25 195.066C1404.25 195.066 1426.79 239.683 1415.97 328.015C1415.97 328.015 1414.85 349.199 1421.94 360.015C1429.04 370.832 1440.54 378.944 1441.21 387.732C1441.89 396.521 1436.82 406.661 1437.83 420.522C1438.85 434.383 1441.55 444.183 1427.02 447.228C1412.48 450.273 1270.51 468.525 1270.51 468.525C1270.51 468.525 1272.54 422.556 1257.33 386.386C1242.12 350.216 1208.32 319.795 1151.87 318.784C1095.42 317.767 1062.07 351.005 1045.51 390.215C1033.77 418.018 1030.86 454.437 1036.27 483.057L392.021 486.437C392.021 486.437 396.526 414.103 363.179 366.332C334.413 325.127 272.143 296.026 193.724 335.235C122.769 370.702 131.974 481.7 131.974 481.7Z" fill="#6F7F8F"/>
<path d="M1151.42 552.454C1209.66 552.454 1256.88 505.238 1256.88 446.994C1256.88 388.75 1209.66 341.535 1151.42 341.535C1093.17 341.535 1045.96 388.75 1045.96 446.994C1045.96 505.238 1093.17 552.454 1151.42 552.454Z" fill="#14100F"/>
<path d="M1151.42 524.175C1194.04 524.175 1228.6 489.62 1228.6 446.995C1228.6 404.369 1194.04 369.814 1151.42 369.814C1108.79 369.814 1074.24 404.369 1074.24 446.995C1074.24 489.62 1108.79 524.175 1151.42 524.175Z" fill="#EEEDF3"/>
<path d="M1151.42 516.868C1190.01 516.868 1221.29 485.585 1221.29 446.995C1221.29 408.405 1190.01 377.121 1151.42 377.121C1112.83 377.121 1081.54 408.405 1081.54 446.995C1081.54 485.585 1112.83 516.868 1151.42 516.868Z" fill="#1E1D22"/>
<path d="M262.672 524.175C305.298 524.175 339.853 489.62 339.853 446.995C339.853 404.369 305.298 369.814 262.672 369.814C220.047 369.814 185.492 404.369 185.492 446.995C185.492 489.62 220.047 524.175 262.672 524.175Z" fill="#EEEDF3"/>
<path d="M262.673 516.868C301.264 516.868 332.547 485.585 332.547 446.995C332.547 408.405 301.264 377.121 262.673 377.121C224.083 377.121 192.8 408.405 192.8 446.995C192.8 485.585 224.083 516.868 262.673 516.868Z" fill="#1E1D22"/>
<path d="M1151.42 493.867C1177.3 493.867 1198.29 472.881 1198.29 446.994C1198.29 421.107 1177.3 400.122 1151.42 400.122C1125.53 400.122 1104.54 421.107 1104.54 446.994C1104.54 472.881 1125.53 493.867 1151.42 493.867Z" fill="#A9A290"/>
<path d="M263.577 493.867C289.464 493.867 310.449 472.881 310.449 446.994C310.449 421.107 289.464 400.122 263.577 400.122C237.69 400.122 216.704 421.107 216.704 446.994C216.704 472.881 237.69 493.867 263.577 493.867Z" fill="#A9A290"/>
<path d="M285.546 207.234C285.546 207.234 442.048 113.943 555.279 55.4644C555.279 55.4644 564.911 58.0008 568.123 60.8725C563.727 63.5766 325.318 213.091 325.318 213.091L285.546 207.234Z" fill="#2D4866"/>
<path d="M390.668 221.431C390.668 221.431 373.091 219.738 371.063 212.642C369.035 205.547 384.248 195.742 401.825 182.557C419.401 169.371 521.145 95.3496 574.886 76.421C628.627 57.4924 724.628 48.7041 762.821 48.0281C801.013 47.3521 1061.29 40.2511 1134.29 40.9272C1207.3 41.6032 1239.08 47.6874 1248.54 53.7716C1258 59.8558 1306.34 106.166 1326.28 142.331C1346.22 178.495 1344.88 177.824 1343.52 184.244C1342.17 190.663 1327.63 199.792 1324.6 199.792C1321.56 199.792 451.85 226.833 443.062 227.85C434.274 228.867 390.668 221.431 390.668 221.431Z" fill="#1F2C44"/>
<path d="M461.986 152.476L456.237 220.419L726.646 210.955L737.803 58.5088C737.803 58.5088 617.807 63.2409 562.714 93.662C507.62 124.083 461.986 152.476 461.986 152.476Z" fill="#2D4866"/>
<path d="M788.846 52.4244L787.494 207.574L1057.9 202.166C1057.9 202.166 1059.26 156.532 1055.2 114.959C1051.14 73.3865 1044.04 46.0049 1044.04 46.0049L788.846 52.4244Z" fill="#2D4866"/>
<path d="M1127.19 171.069C1127.19 171.069 1281.33 170.053 1285.38 168.025C1289.44 165.997 1296.54 157.544 1292.48 145.04C1288.43 132.536 1253.61 71.6887 1209.67 57.4922C1140.37 54.7881 1117.05 54.4474 1113.33 56.1401C1109.61 57.8329 1101.84 59.5203 1103.53 74.0574C1105.22 88.5946 1116.71 157.884 1118.06 162.281C1119.42 166.678 1121.78 171.405 1127.19 171.069Z" fill="#2D4866"/>
<path d="M100.314 408.013C100.314 408.013 84.7657 444.183 61.4456 446.211C38.1255 448.239 28.3205 447.903 27.3038 443.842C26.287 439.78 25.9517 428.629 26.6278 422.544C27.3038 416.46 28.3205 413.415 35.0807 411.728C41.841 410.041 100.314 408.013 100.314 408.013Z" fill="#1E1D22"/>
<path d="M1222.17 440.094C1222.17 440.094 1222.42 435 1220.35 427.158L1185.33 437.363L1184.28 434.664L1218.33 420.852C1217.02 417.342 1215.3 413.524 1212.94 409.484L1173.16 429.402C1169.93 425.454 1165.7 422.426 1160.8 420.684L1166.81 378.209C1166.81 378.209 1162.08 376.327 1153.99 375.753L1152.36 412.199L1149.47 412.329L1147.37 375.64C1143.62 375.748 1139.45 376.148 1134.87 377.078L1140.89 421.025C1136.26 422.886 1132.31 425.979 1129.27 429.84L1089.8 411.307C1087.55 415.406 1085.92 419.267 1084.7 422.81L1119.09 435.762L1118.1 438.488L1082.83 429.17C1080.96 437.06 1081.35 442.149 1081.35 442.149L1123.33 449.018C1123.67 454.323 1125.39 459.245 1128.26 463.349L1099.52 495.739C1102.81 499.065 1106.06 501.71 1109.11 503.884L1131.25 474.561L1133.59 476.275L1114.68 507.469C1121.72 511.493 1126.71 512.564 1126.71 512.564L1144.96 474.658C1147.04 475.145 1149.18 475.464 1151.4 475.464C1154.19 475.464 1156.82 474.934 1159.36 474.187L1177.67 512.207C1177.67 512.207 1182.66 511.136 1189.7 507.113L1170.79 475.918L1173.12 474.204L1195.27 503.527C1198.32 501.353 1201.57 498.703 1204.86 495.382L1175.32 462.089C1177.86 458.022 1179.37 453.285 1179.55 448.185L1222.17 440.094Z" fill="#EEEDF3"/>
<path d="M1151.74 454.236C1156.22 454.236 1159.85 450.604 1159.85 446.124C1159.85 441.643 1156.22 438.011 1151.74 438.011C1147.26 438.011 1143.63 441.643 1143.63 446.124C1143.63 450.604 1147.26 454.236 1151.74 454.236Z" fill="#6F7F8F"/>
<path d="M333.418 440.094C333.418 440.094 333.672 435 331.607 427.158L296.583 437.363L295.529 434.664L329.584 420.852C328.275 417.342 326.55 413.524 324.192 409.484L284.415 429.402C281.181 425.454 276.957 422.426 272.052 420.684L278.066 378.209C278.066 378.209 273.328 376.327 265.237 375.753L263.615 412.199L260.721 412.329L258.618 375.64C254.87 375.748 250.706 376.148 246.119 377.078L252.144 421.025C247.515 422.886 243.561 425.979 240.522 429.84L201.053 411.307C198.798 415.406 197.175 419.267 195.948 422.81L230.338 435.762L229.354 438.488L194.082 429.17C192.216 437.06 192.6 442.149 192.6 442.149L234.584 449.018C234.924 454.323 236.639 459.245 239.511 463.349L210.772 495.739C214.065 499.065 217.31 501.71 220.36 503.884L242.507 474.561L244.843 476.275L225.931 507.469C232.972 511.493 237.958 512.564 237.958 512.564L256.216 474.658C258.293 475.145 260.429 475.464 262.652 475.464C265.437 475.464 268.077 474.934 270.613 474.187L288.925 512.207C288.925 512.207 293.911 511.136 300.953 507.113L282.041 475.918L284.377 474.204L306.523 503.527C309.574 501.353 312.818 498.703 316.112 495.382L286.573 462.089C289.109 458.022 290.623 453.285 290.802 448.185L333.418 440.094Z" fill="#EEEDF3"/>
<path d="M262.998 454.236C267.478 454.236 271.11 450.604 271.11 446.124C271.11 441.643 267.478 438.011 262.998 438.011C258.518 438.011 254.886 441.643 254.886 446.124C254.886 450.604 258.518 454.236 262.998 454.236Z" fill="#6F7F8F"/>
<path d="M436.525 212.415C436.525 212.415 431.566 212.755 431.452 210.614C431.339 208.472 431.566 196.866 432.577 195.4C433.589 193.935 436.298 192.696 436.861 190.668C437.423 188.64 441.257 176.245 448.018 174.33C454.778 172.416 469.202 172.189 471.451 173.768C473.707 175.347 473.707 207.682 469.537 211.176C465.367 214.67 436.525 212.415 436.525 212.415Z" fill="#1F2C44"/>
<path d="M476.524 162.168L476.297 174.558L495.453 174.331C495.453 174.331 502.44 175.91 501.31 191.681C500.179 207.451 499.958 210.382 499.958 210.382L507.843 211.058L508.519 200.691C508.519 200.691 519.784 175.451 521.59 175.451C523.397 175.451 528.351 177.928 526.771 181.984C525.192 186.04 512.126 201.139 512.126 201.139L511.45 211.729L524.743 211.956L524.516 207.9C524.516 207.9 534.884 198.435 536.685 184.466C531.952 175.229 531.049 173.877 531.049 173.877C531.049 173.877 533.304 165.992 539.838 168.469C545.246 176.354 566.43 211.285 566.43 211.285L708.394 206.326L722.104 87.1079C722.71 81.8512 718.372 77.3516 713.099 77.768C690.866 79.5311 638.953 83.8522 626.823 86.6645C611.274 90.2717 572.065 104.69 533.532 128.129C494.998 151.568 476.524 162.168 476.524 162.168Z" fill="#CCF2FB"/>
<path d="M419.803 454.674L419.548 453.625C402.123 382.15 407.732 274.49 407.791 273.408L416.374 224.572L432.615 158.684C432.793 157.965 433.501 157.522 434.253 157.695C434.978 157.873 435.421 158.603 435.243 159.333L419.018 225.135L410.473 273.716C410.436 274.625 404.903 380.847 421.923 451.938C460.872 451.364 988.381 444.269 1018.91 443.858C1019.03 433.398 1022.48 366.185 1089.31 320.481C1098.57 248.087 1097.83 244.988 1089.06 208.148L1088.81 207.093C1086.09 190.322 1061.75 41.8245 1061.75 41.8245C1061.76 41.0457 1062.11 29.3802 1047.1 20.9272C1046.45 20.5595 1046.22 19.7374 1046.59 19.0885C1046.95 18.4341 1047.78 18.2015 1048.43 18.5747C1064.97 27.8876 1064.47 41.116 1064.44 41.6784C1064.46 41.6784 1088.76 189.906 1091.46 206.563L1091.69 207.526C1100.41 244.139 1101.33 247.963 1091.92 321.427L1091.84 322.033L1091.34 322.374C1019.78 370.966 1021.6 444.404 1021.62 445.14L1021.67 446.524L1020.29 446.54C1014.59 446.616 450.288 454.204 420.884 454.652L419.803 454.674Z" fill="#6F7F8F"/>
<path d="M740.395 448.346C740.373 448.346 740.346 448.346 740.325 448.346C739.578 448.308 739.005 447.67 739.048 446.924C739.497 438.455 752.888 218.499 753.018 216.276C753.077 214.708 759.107 56.4805 759.61 47.7841C759.437 37.925 760.621 29.0069 760.632 28.9204C760.73 28.1795 761.422 27.6224 762.152 27.763C762.893 27.8604 763.412 28.5418 763.309 29.2827C763.299 29.3693 762.141 38.0927 762.309 47.8382C761.806 56.6157 755.776 214.816 755.716 216.411C755.581 218.666 742.19 438.606 741.741 447.07C741.709 447.789 741.109 448.346 740.395 448.346Z" fill="#6F7F8F"/>
<path d="M1217.22 338.382C1216.49 338.382 1215.89 337.809 1215.86 337.073C1215.84 336.327 1216.43 335.699 1217.17 335.678L1410.97 329.366C1411.71 329.318 1412.34 329.929 1412.37 330.675C1412.39 331.422 1411.8 332.049 1411.06 332.071L1217.27 338.382C1217.25 338.382 1217.23 338.382 1217.22 338.382Z" fill="#6F7F8F"/>
<path d="M218.738 325.089C218.695 325.089 218.651 325.089 218.614 325.083C216.131 324.851 157.728 319.399 149.546 316.446C141.195 313.429 130.071 300.6 129.6 300.054C129.114 299.492 129.179 298.637 129.741 298.145C130.303 297.664 131.158 297.723 131.65 298.286C131.764 298.41 142.78 311.119 150.465 313.894C158.323 316.733 218.257 322.325 218.857 322.379C219.603 322.449 220.15 323.109 220.079 323.85C220.014 324.559 219.425 325.089 218.738 325.089Z" fill="#6F7F8F"/>
<path d="M1170.01 266.497H1121C1116.27 266.497 1112.43 262.657 1112.43 257.935V227.066C1112.43 222.344 1116.27 218.504 1121 218.504H1170.01C1174.73 218.504 1178.57 222.344 1178.57 227.066V257.935C1178.57 262.657 1174.73 266.497 1170.01 266.497ZM1121 221.203C1117.77 221.203 1115.14 223.831 1115.14 227.06V257.93C1115.14 261.164 1117.77 263.787 1121 263.787H1170.01C1173.24 263.787 1175.87 261.159 1175.87 257.93V227.06C1175.87 223.831 1173.24 221.203 1170.01 221.203H1121Z" fill="#6F7F8F"/>
<path d="M794.93 69.6658L793.578 190.674C793.578 190.674 793.919 205.211 807.439 204.87C820.96 204.53 924.391 201.825 924.391 201.825C924.391 201.825 925.516 183.232 954.812 172.08C949.739 154.163 954.136 139.291 963.265 128.139C972.394 116.987 1008.56 113.602 1008.56 113.602L1006.84 70.9745C1006.67 66.6912 1003.08 63.3436 998.791 63.4734L794.93 69.6658Z" fill="#CCF2FB"/>
<path d="M1107.59 68.2812C1107.59 68.2812 1138.68 69.298 1146.46 70.3093C1154.24 71.3206 1168.77 80.1143 1177.56 88.5619C1186.35 97.0095 1217.44 134.531 1218.46 143.66C1219.48 152.789 1213.39 169.014 1211.02 170.025C1208.66 171.037 1133.96 171.377 1133.96 171.377C1133.96 171.377 1122.8 172.394 1120.1 160.561C1117.39 148.728 1105.22 73.0134 1107.59 68.2812Z" fill="#CCF2FB"/>
<path d="M1385.43 156.532C1366.51 121.714 1331.52 76.4205 1325.27 69.1573C1321.15 64.3711 1314.74 57.8867 1310.81 53.9766L1310.51 54.0036L1290.23 57.1566C1290.23 57.1566 1350.17 100.871 1392.08 194.162L1404.25 195.065L1404.38 194.762C1401.06 186.991 1395.26 174.606 1385.43 156.532Z" fill="#2D4866"/>
<path d="M32.376 320.13C32.376 320.13 50.9693 291.061 65.8364 279.228C80.7089 267.394 159.468 270.099 163.184 270.099C166.899 270.099 172.313 273.479 167.58 278.211C162.848 282.943 121.611 305.592 95.2461 312.353C68.8812 319.113 33.052 323.174 32.376 320.13Z" fill="#EEEDF3"/>
<g opacity="0.21">
<path d="M369.485 305.933C369.485 305.933 396.526 293.316 437.99 290.612C479.455 287.908 1029.28 266.275 1050.92 271.683C1072.55 277.091 1093.28 274.387 1110.41 273.484C1127.53 272.581 1311.41 250.948 1337.55 250.948C1363.69 250.948 1385.32 259.963 1390.73 256.356C1396.14 252.749 1395.23 238.331 1370 236.524C1344.76 234.723 247.801 277.989 247.801 282.494C247.801 287.004 300.082 269.877 369.485 305.933Z" fill="#EEF7F6"/>
</g>
<path d="M1418.22 265.036C1416.41 246.043 1414.76 233.62 1413.53 225.848C1411.99 222.863 1408.23 217.455 1401.32 218.282C1391.86 219.407 1373.83 229.548 1371.13 239.466C1368.42 249.385 1379.47 300.081 1380.14 331.405C1394.33 331.194 1410.7 331.578 1415.24 328.636C1416.67 322.39 1421.41 298.329 1418.22 265.036Z" fill="#E7646C"/>
<path d="M1.72914 358.663C0.993632 358.663 0.387916 358.073 0.3771 357.338C0.366283 356.591 0.955769 355.975 1.7021 355.959L171.157 352.806C171.167 352.806 171.173 352.806 171.184 352.806C171.919 352.806 172.525 353.395 172.536 354.131C172.547 354.877 171.957 355.494 171.211 355.51L1.75619 358.663C1.74538 358.663 1.73996 358.663 1.72914 358.663Z" fill="#6F7F8F"/>
<path d="M263.702 433.393C266.13 433.393 268.098 431.424 268.098 428.996C268.098 426.568 266.13 424.599 263.702 424.599C261.273 424.599 259.305 426.568 259.305 428.996C259.305 431.424 261.273 433.393 263.702 433.393Z" fill="#1E1D22"/>
<path d="M245 446.914C247.429 446.914 249.397 444.945 249.397 442.517C249.397 440.089 247.429 438.12 245 438.12C242.572 438.12 240.604 440.089 240.604 442.517C240.604 444.945 242.572 446.914 245 446.914Z" fill="#1E1D22"/>
<path d="M252.998 467.535C255.427 467.535 257.395 465.566 257.395 463.138C257.395 460.71 255.427 458.741 252.998 458.741C250.57 458.741 248.602 460.71 248.602 463.138C248.602 465.566 250.57 467.535 252.998 467.535Z" fill="#1E1D22"/>
<path d="M274.859 467.649C277.287 467.649 279.256 465.68 279.256 463.252C279.256 460.824 277.287 458.855 274.859 458.855C272.43 458.855 270.462 460.824 270.462 463.252C270.462 465.68 272.43 467.649 274.859 467.649Z" fill="#1E1D22"/>
<path d="M280.996 446.519C283.425 446.519 285.393 444.55 285.393 442.122C285.393 439.694 283.425 437.725 280.996 437.725C278.568 437.725 276.6 439.694 276.6 442.122C276.6 444.55 278.568 446.519 280.996 446.519Z" fill="#1E1D22"/>
<path d="M1152.45 433.393C1154.88 433.393 1156.84 431.424 1156.84 428.996C1156.84 426.568 1154.88 424.599 1152.45 424.599C1150.02 424.599 1148.05 426.568 1148.05 428.996C1148.05 431.424 1150.02 433.393 1152.45 433.393Z" fill="#1E1D22"/>
<path d="M1133.74 446.914C1136.17 446.914 1138.14 444.945 1138.14 442.517C1138.14 440.089 1136.17 438.12 1133.74 438.12C1131.31 438.12 1129.34 440.089 1129.34 442.517C1129.34 444.945 1131.31 446.914 1133.74 446.914Z" fill="#1E1D22"/>
<path d="M1141.75 467.535C1144.17 467.535 1146.14 465.566 1146.14 463.138C1146.14 460.71 1144.17 458.741 1141.75 458.741C1139.32 458.741 1137.35 460.71 1137.35 463.138C1137.35 465.566 1139.32 467.535 1141.75 467.535Z" fill="#1E1D22"/>
<path d="M1163.6 467.649C1166.03 467.649 1168 465.68 1168 463.252C1168 460.824 1166.03 458.855 1163.6 458.855C1161.17 458.855 1159.2 460.824 1159.2 463.252C1159.2 465.68 1161.17 467.649 1163.6 467.649Z" fill="#1E1D22"/>
<path d="M1169.74 446.519C1172.17 446.519 1174.14 444.55 1174.14 442.122C1174.14 439.694 1172.17 437.725 1169.74 437.725C1167.32 437.725 1165.35 439.694 1165.35 442.122C1165.35 444.55 1167.32 446.519 1169.74 446.519Z" fill="#1E1D22"/>
<path d="M690.481 35.5238C690.481 35.5238 696.906 16.0868 717.522 13.5504C717.522 13.5504 718.539 7.80147 724.791 6.9578C731.043 6.11412 742.535 6.9578 742.535 6.9578C742.535 6.9578 744.055 6.28177 744.228 12.7067C744.228 12.7067 883.716 5.32454 980.609 3.97249C1077.5 2.62045 1166.29 4.87566 1166.29 4.87566C1166.29 4.87566 1170.12 -1.15447 1186.51 0.197572L1207.14 0.538286C1207.14 0.538286 1211.36 0.705959 1211.36 5.61118C1211.36 5.61118 1223.36 5.95188 1227.92 7.80689C1232.49 9.6619 1243.14 19.64 1243.98 23.3554L1168.27 21.3273L1152.04 21.1597V11.187C1152.04 11.187 878.762 5.77882 765.866 18.6233C765.866 18.6233 754.374 20.992 754.709 29.4396L690.481 35.5238Z" fill="#1F2C44"/>
<g opacity="0.21">
<path d="M412.978 419.278C412.978 419.278 884.165 411.841 1018.02 403.053C921.346 380.744 521.817 382.096 412.978 419.278Z" fill="#EEF7F6"/>
</g>
</svg>
