<svg width="156" height="156" viewBox="0 0 156 156" fill="none" xmlns="http://www.w3.org/2000/svg">
<path d="M91.696 0L93.6375 12.5903C93.6375 12.5903 87.3856 34.7313 84.0055 39.6312C81.9179 42.6597 79.7709 43.4223 78.4297 43.5737H77.0776C75.7364 43.4277 73.5893 42.6597 71.5018 39.6312C68.1217 34.7313 61.8699 12.5903 61.8699 12.5903L63.8114 0L44.542 6.42494L46.1482 9.38319L63.8925 55.3527L72.8485 69.7169H77.0722H78.4242H82.6481L91.604 55.3527L109.348 9.38319L110.954 6.42494L91.696 0Z" fill="#A9A290"/>
<path d="M21.4113 132.344L27.371 121.084C27.371 121.084 45.6074 107.061 51.2482 105.146C54.731 103.962 56.9105 104.632 58.0733 105.319L59.1603 106.125C60.15 107.044 61.4155 108.937 61.2803 112.615C61.064 118.564 52.8598 140.056 52.8598 140.056L43.7795 148.996L63.0705 155.35L63.5464 152.019L76.7693 104.551L78.1647 87.6778L74.7738 85.1522L73.6867 84.3464L70.2958 81.8208L54.5309 87.9915L12.8447 114.264L9.78906 115.676L21.4113 132.344Z" fill="#A9A290"/>
<path d="M8.46918 41.1892L21.054 43.1577C21.054 43.1577 40.2531 55.8291 43.8982 60.5396C46.1534 63.4492 46.2291 65.7261 45.9587 67.0511L45.5477 68.3382C45.0015 69.5712 43.6223 71.3884 40.1016 72.4593C34.4068 74.1953 11.4113 73.4381 11.4113 73.4381L0 67.7703L0.275789 88.0781L3.58023 87.4453L52.7676 84.4762L69.1706 80.2957L70.4523 76.272L70.8634 74.9849L72.1451 70.9612L61.1719 58.068L22.7468 27.2198L20.4158 24.7915L8.46918 41.1892Z" fill="#A9A290"/>
<path d="M147.53 41.1892L134.945 43.1577C134.945 43.1577 115.746 55.8291 112.101 60.5396C109.846 63.4492 109.77 65.7261 110.035 67.0511L110.446 68.3382C110.992 69.5712 112.371 71.3884 115.892 72.4593C121.587 74.1953 144.583 73.4381 144.583 73.4381L155.994 67.7703L155.718 88.0781L152.414 87.4453L103.226 84.4762L86.8231 80.2957L85.5414 76.272L85.1304 74.9849L83.8486 70.9612L94.8218 58.068L133.247 27.2198L135.578 24.7915L147.53 41.1892Z" fill="#A9A290"/>
<path d="M134.82 132.344L128.861 121.084C128.861 121.084 110.624 107.061 104.983 105.146C101.501 103.962 99.321 104.632 98.1583 105.319L97.0712 106.125C96.0815 107.044 94.816 108.937 94.9512 112.615C95.1675 118.564 103.372 140.056 103.372 140.056L112.452 148.996L93.1611 155.35L92.6852 152.019L79.4622 104.551L78.0669 87.6778L81.4578 85.1522L82.5449 84.3464L85.9358 81.8208L101.701 87.9915L143.387 114.264L146.443 115.676L134.82 132.344Z" fill="#A9A290"/>
</svg>
