<svg width="1419" height="540" viewBox="0 0 1419 540" fill="none" xmlns="http://www.w3.org/2000/svg">
<path d="M9.13945 380.017L5.31042 379.79C5.31042 379.79 -1.44985 390.157 8.91763 406.603L23.563 408.182L9.13945 380.017Z" fill="#C6D0D2"/>
<path d="M988.02 179.687C988.02 179.687 829.49 47.5215 781.492 24.8774C803.466 22.8493 813.941 23.8607 813.941 23.8607C813.941 23.8607 791.633 8.31229 757.491 6.61952C723.349 4.92676 563.808 -2.50958 470.181 0.870528C376.555 4.25064 227.825 13.3798 214.304 14.7318C200.784 16.0838 175.095 26.5649 149.065 51.237H137.908L33.1247 145.545L47.9972 158.73L978.204 187.123L988.02 179.687Z" fill="black"/>
<path d="M1033.99 159.071L813.946 23.8664L783.86 17.4414L772.368 24.8777L890.336 112.425L979.907 184.419L1038.72 185.095L1056.97 170.222L1033.99 159.071Z" fill="#2D4866"/>
<path d="M1330.09 465.309L1046.88 459.149L427.598 450.101L377.307 441.313L161.921 430.497L148.059 438.273L111.89 377.767L137.319 295.422C137.319 295.422 282.317 249.999 282.28 249.999C282.242 249.999 472.21 244.59 472.21 244.59L1055.62 248.646L1310.57 291.236L1357.58 374.619L1365.32 450.101L1330.09 465.309Z" fill="#29292D"/>
<path d="M1418.82 441.475C1418.82 441.475 1409.86 430.15 1409.86 426.602C1411.56 423.054 1412.4 423.054 1412.4 423.054L1411.89 407.165C1411.89 407.165 1406.48 402.768 1408.51 391.784C1410.54 380.8 1416.12 336.183 1415.78 334.155C1415.45 332.127 1413.92 329.758 1413.92 327.562C1413.92 325.367 1412.74 304.577 1409.86 298.661C1406.99 292.744 1401.24 282.604 1401.24 282.604L1397.02 279.9C1397.02 279.9 1388.23 258.267 1373.19 238.998C1372.68 236.461 1365.59 221.081 1355.61 215.505C1345.64 209.929 1309.48 192.52 1230.72 180.011C1151.96 167.502 1051.91 158.037 1051.91 158.037L1033.99 159.054L1044.13 169.87C1044.13 169.87 1013.37 179.335 996.133 180.011C978.897 180.687 403.596 157.361 365.063 154.657C326.53 151.953 58.149 148.573 46.9919 148.573C35.8348 148.573 33.1305 145.528 33.1305 145.528C33.1305 145.528 18.5934 157.021 15.2133 176.29C11.8333 195.559 13.5207 231.724 13.5207 231.724C13.5207 231.724 4.39164 244.568 2.70426 253.021C1.01701 261.474 8.78849 311.159 7.43644 313.187C6.08439 315.215 -1.69271 312.511 0.335365 330.429C2.36344 348.346 8.78837 378.091 9.12369 381.806C9.45902 385.522 15.8841 412.568 32.4493 416.624C49.0146 420.68 148.049 438.257 148.049 438.257C148.049 438.257 139.261 434.536 141.965 411.892C144.669 389.248 158.189 332.457 210.243 304.064C262.297 275.671 310.635 279.386 356.605 306.092C402.574 332.797 416.435 379.443 421.843 400.735C427.252 422.027 427.593 450.085 427.593 450.085L1046.83 463.27C1046.83 463.27 1045.48 372.342 1096.52 331.105C1147.56 289.867 1183.73 285.135 1245.92 302.036C1308.11 318.936 1323.33 391.947 1328.06 416.959C1332.79 441.972 1330.09 465.298 1330.09 465.298L1362.2 462.929C1362.2 462.94 1417.29 460.912 1418.82 441.475Z" fill="#070606"/>
<path d="M985.542 461.139C986.013 461.139 986.472 460.891 986.721 460.447C992.394 450.361 993.119 439.426 993.882 427.852C994.228 422.601 994.59 417.176 995.445 411.773C998.527 392.244 998.614 343.176 998.614 337.649C998.614 330.007 998.506 326.378 998.397 322.625C998.284 318.628 998.16 314.497 998.16 305.2C998.16 286.731 994.125 211.341 990.896 200.265C987.695 189.292 977.955 178.14 977.544 177.67C977.051 177.107 976.197 177.053 975.634 177.551C975.072 178.043 975.018 178.897 975.515 179.46C975.613 179.573 985.272 190.633 988.3 201.028C991.394 211.633 995.461 287.288 995.461 305.205C995.461 314.545 995.58 318.693 995.699 322.706C995.807 326.438 995.915 330.05 995.915 337.654C995.915 343.165 995.829 392.034 992.773 411.357C991.902 416.879 991.54 422.368 991.188 427.679C990.442 438.939 989.739 449.582 984.369 459.133C984.001 459.782 984.233 460.604 984.882 460.972C985.088 461.08 985.315 461.139 985.542 461.139Z" fill="#141414"/>
<path d="M960.977 177.323C960.977 177.323 774.054 39.75 748.706 34.3418C723.358 28.9337 616.882 29.9451 616.882 29.9451L654.063 158.389L960.977 177.323Z" fill="#CCF2FB"/>
<path d="M572.941 29.6094L587.479 156.026L328.562 147.237C328.562 147.237 373.855 49.5493 384.336 33.6655C399.544 31.9782 572.941 29.6094 572.941 29.6094Z" fill="#2D4866"/>
<path d="M358.642 34.6826L299.152 147.238L122.71 143.857L220.398 42.7949L358.642 34.6826Z" fill="#2D4866"/>
<path d="M642.351 453.925C642.816 453.925 643.265 453.687 643.519 453.254C645.72 449.485 645.623 444.179 645.52 438.566C645.466 435.488 645.407 432.308 645.726 429.28L645.796 428.598L645.288 428.139C642.01 425.153 641.053 410.6 641.226 402.12C641.242 401.563 643.022 344.528 642.129 315.967C641.74 303.491 640.761 286.628 639.815 270.322C638.56 248.69 637.37 228.258 637.624 219.61C638.122 202.585 629.972 177.924 629.891 177.675C628.495 173.489 622.757 165.079 622.514 164.717C622.087 164.106 621.243 163.944 620.632 164.371C620.015 164.793 619.858 165.631 620.28 166.253C620.34 166.334 626.045 174.706 627.322 178.535C627.403 178.778 635.401 202.985 634.915 219.529C634.655 228.295 635.845 248.787 637.105 270.485C638.051 286.78 639.03 303.621 639.42 316.059C640.312 344.533 638.538 401.487 638.517 402.055C638.473 404.364 638.219 424.017 642.973 429.626C642.702 432.616 642.757 435.661 642.816 438.614C642.913 443.844 643 448.776 641.183 451.891C640.804 452.535 641.026 453.362 641.669 453.741C641.88 453.871 642.118 453.925 642.351 453.925Z" fill="#141414"/>
<path d="M307.35 285.989C307.475 285.989 307.599 285.973 307.723 285.935C308.437 285.729 308.854 284.978 308.648 284.258L304.057 268.315C303.949 267.791 291.05 206.127 291.493 185.343C291.932 164.759 302.012 147.87 302.115 147.707C302.499 147.069 302.299 146.236 301.661 145.847C301.017 145.468 300.19 145.668 299.806 146.301C299.373 147.015 289.244 163.986 288.795 185.289C288.346 206.375 300.904 266.422 301.439 268.97L306.058 285.01C306.22 285.605 306.761 285.989 307.35 285.989Z" fill="#141414"/>
<path d="M170.372 260.133H182.092C195.072 260.133 205.639 249.571 205.639 236.586V232.757C205.639 219.772 195.077 209.209 182.092 209.209H170.372C157.387 209.209 146.825 219.772 146.825 232.757V236.586C146.82 249.571 157.382 260.133 170.372 260.133ZM182.092 211.908C193.584 211.908 202.935 221.259 202.935 232.751V236.58C202.935 248.073 193.584 257.423 182.092 257.423H170.372C158.88 257.423 149.529 248.073 149.529 236.58V232.751C149.529 221.259 158.88 211.908 170.372 211.908H182.092Z" fill="black"/>
<path d="M203.607 307.006C204.261 307.006 204.84 306.53 204.943 305.865C205.056 305.124 204.553 304.432 203.818 304.318C202.503 304.113 72.5178 283.8 65.2114 282.134C57.9752 280.49 56.461 274.043 56.461 268.922C56.461 262.519 54.2978 235.056 54.2004 233.888C54.1409 233.141 53.4702 232.53 52.7455 232.649C51.9992 232.709 51.4475 233.358 51.507 234.104C51.5287 234.391 53.7569 262.627 53.7569 268.922C53.7569 277.553 57.6129 283.183 64.6111 284.779C72.0095 286.461 198.036 306.152 203.396 306.99C203.471 307.001 203.542 307.006 203.607 307.006Z" fill="#141414"/>
<path d="M1411.55 334.496C1411.55 334.496 1397.35 335.848 1393.63 344.301C1389.91 352.754 1380.45 388.583 1379.1 393.65C1377.74 398.718 1381.12 403.791 1386.2 403.455C1386.2 403.455 1381.8 397.371 1387.21 395.678C1392.63 393.986 1394.76 387.004 1396.56 379.227C1398.37 371.45 1403.55 344.977 1402.65 342.835C1401.75 340.694 1411.55 334.496 1411.55 334.496Z" fill="black"/>
<path d="M1333.92 415.846C1333.92 415.846 1347.89 417.647 1352.17 410.211C1356.46 402.774 1366.37 360.634 1365.24 351.846C1364.12 343.057 1326.71 342.381 1326.71 342.381C1326.71 342.381 1362.09 348.693 1361.42 353.198C1360.74 357.703 1352.85 404.575 1348.12 409.08C1343.39 413.591 1333.92 415.846 1333.92 415.846Z" fill="#070606"/>
<path d="M1191.91 539.379C1126.38 539.379 1073.25 486.25 1073.25 420.713C1073.25 355.175 1126.38 302.046 1191.91 302.046C1257.45 302.046 1310.58 355.175 1310.58 420.713C1310.58 486.25 1257.45 539.379 1191.91 539.379Z" fill="#070606"/>
<path d="M1191.91 513.69C1140.56 513.69 1098.94 472.062 1098.94 420.712C1098.94 369.362 1140.56 327.735 1191.91 327.735C1243.26 327.735 1284.89 369.362 1284.89 420.712C1284.89 472.062 1243.26 513.69 1191.91 513.69Z" fill="#C6D0D2"/>
<path d="M1191.91 502.376C1146.81 502.376 1110.25 465.814 1110.25 420.713C1110.25 375.611 1146.81 339.049 1191.91 339.049C1237.02 339.049 1273.58 375.611 1273.58 420.713C1273.58 465.814 1237.02 502.376 1191.91 502.376Z" fill="#5A7375"/>
<path d="M1191.91 495.437C1150.64 495.437 1117.19 461.982 1117.19 420.713C1117.19 379.443 1150.64 345.988 1191.91 345.988C1233.18 345.988 1266.64 379.443 1266.64 420.713C1266.64 461.982 1233.18 495.437 1191.91 495.437Z" fill="#070606"/>
<path d="M1191.91 477.185C1160.72 477.185 1135.44 451.901 1135.44 420.713C1135.44 389.524 1160.72 364.24 1191.91 364.24C1223.1 364.24 1248.39 389.524 1248.39 420.713C1248.39 451.901 1223.1 477.185 1191.91 477.185Z" fill="#A0864B"/>
<path d="M1191.91 452.891C1174.14 452.891 1159.74 438.485 1159.74 420.713C1159.74 402.941 1174.14 388.534 1191.91 388.534C1209.69 388.534 1224.09 402.941 1224.09 420.713C1224.09 438.485 1209.69 452.891 1191.91 452.891Z" fill="#070606"/>
<path d="M1160.18 363.678L1159.73 381.931C1159.73 381.931 1157.82 393.088 1156.13 397.707C1154.43 402.325 1152.75 411.454 1152.18 415.624C1151.62 419.794 1152.3 434.325 1154.55 439.171C1156.81 444.017 1157.6 447.17 1158.61 453.254C1159.62 459.338 1160.75 468.013 1160.75 468.916C1160.75 469.819 1161.99 473.875 1158.38 476.693C1154.78 479.511 1147.12 474.779 1144.63 470.268C1142.16 465.763 1132.47 455.282 1130.89 451.788C1129.31 448.295 1125.59 443.562 1127.06 441.421C1127.06 441.421 1123.56 432.968 1123.56 425.424C1123.56 417.879 1124.24 404.467 1127.51 397.258C1130.77 390.049 1133.36 383.737 1137.76 378.102C1142.16 372.467 1155.68 362.104 1155.68 362.104L1160.18 363.678Z" fill="#DD2A37"/>
<path d="M280.636 539.379C215.098 539.379 161.969 486.25 161.969 420.713C161.969 355.175 215.098 302.046 280.636 302.046C346.173 302.046 399.302 355.175 399.302 420.713C399.302 486.25 346.173 539.379 280.636 539.379Z" fill="#070606"/>
<path d="M280.635 513.69C229.285 513.69 187.658 472.062 187.658 420.712C187.658 369.362 229.285 327.735 280.635 327.735C331.985 327.735 373.613 369.362 373.613 420.712C373.613 472.062 331.985 513.69 280.635 513.69Z" fill="#C6D0D2"/>
<path d="M280.635 502.376C235.534 502.376 198.972 465.814 198.972 420.713C198.972 375.611 235.534 339.049 280.635 339.049C325.737 339.049 362.299 375.611 362.299 420.713C362.299 465.814 325.737 502.376 280.635 502.376Z" fill="#5A7375"/>
<path d="M280.635 495.437C239.365 495.437 205.91 461.982 205.91 420.713C205.91 379.443 239.365 345.988 280.635 345.988C321.904 345.988 355.359 379.443 355.359 420.713C355.359 461.982 321.904 495.437 280.635 495.437Z" fill="#070606"/>
<path d="M280.635 477.185C249.447 477.185 224.163 451.901 224.163 420.713C224.163 389.524 249.447 364.24 280.635 364.24C311.824 364.24 337.107 389.524 337.107 420.713C337.107 451.901 311.824 477.185 280.635 477.185Z" fill="#A0864B"/>
<path d="M280.635 452.891C262.863 452.891 248.456 438.485 248.456 420.713C248.456 402.941 262.863 388.534 280.635 388.534C298.407 388.534 312.814 402.941 312.814 420.713C312.814 438.485 298.407 452.891 280.635 452.891Z" fill="#070606"/>
<path d="M248.905 363.678L248.456 381.931C248.456 381.931 246.541 393.088 244.848 397.707C243.156 402.325 241.468 411.454 240.906 415.624C240.343 419.794 241.02 434.325 243.275 439.171C245.53 444.017 246.32 447.17 247.331 453.254C248.342 459.338 249.473 468.013 249.473 468.916C249.473 469.819 250.711 473.875 247.104 476.693C243.496 479.511 235.838 474.779 233.356 470.268C230.879 465.763 221.188 455.282 219.609 451.788C218.029 448.295 214.314 443.562 215.78 441.421C215.78 441.421 212.286 432.968 212.286 425.424C212.286 417.879 212.962 404.467 216.228 397.258C219.495 390.049 222.085 383.737 226.482 378.102C230.879 372.467 244.4 362.104 244.4 362.104L248.905 363.678Z" fill="#DD2A37"/>
<path d="M893.155 156.026C893.155 156.026 767.864 61.8317 744.43 53.7194C744.43 53.7194 739.471 51.4642 725.95 51.0153C712.43 50.5664 650.685 51.0153 650.685 51.0153C650.685 51.0153 640.095 51.6913 642.124 60.7067C644.152 69.7222 670.744 161.207 670.744 161.207L645.617 159.406L608.095 26.5649L746.345 27.917L819.02 71.5231L943.749 158.054C943.749 158.054 971.806 180.704 970.113 180.704C968.421 180.704 791.303 168.535 791.303 168.535C791.303 168.535 815.64 119.299 820.599 114.567C825.558 109.835 830.063 116.595 827.808 119.975C825.553 123.355 814.515 149.72 814.515 149.72C814.515 149.72 821.275 149.947 822.178 150.396C823.081 150.845 828.489 153.776 828.489 153.776C828.489 153.776 831.869 150.169 833.898 150.623C835.926 151.077 887.752 161.888 887.752 161.888L893.155 156.026Z" fill="#2D4866"/>
<path d="M583.536 81.6635C583.536 81.6635 568.214 115.016 567.76 126.281C567.311 137.546 572.265 134.393 572.265 134.393L566.408 147.011L418.132 142.051C418.132 142.051 409.117 99.6891 410.02 93.3777C410.923 87.0664 432.101 47.4082 432.101 47.4082L577.219 46.0562L583.536 81.6635Z" fill="#CCF2FB"/>
<path d="M702.401 219.913H712.709C719.897 219.913 725.721 214.088 725.721 206.901V204.364C725.721 197.177 719.897 191.352 712.709 191.352H702.401C695.214 191.352 689.389 197.177 689.389 204.364V206.901C689.389 214.083 695.214 219.913 702.401 219.913Z" fill="black"/>
<path d="M369.344 206.393H379.652C386.84 206.393 392.665 200.568 392.665 193.381V190.844C392.665 183.657 386.84 177.832 379.652 177.832H369.344C362.157 177.832 356.333 183.657 356.333 190.844V193.381C356.333 200.563 362.162 206.393 369.344 206.393Z" fill="black"/>
<path d="M1253.36 236.137C1254.07 236.137 1254.67 235.58 1254.71 234.871C1254.75 234.12 1254.19 233.481 1253.45 233.433L992.837 217.543C992.128 217.56 991.452 218.079 991.403 218.809C991.36 219.561 991.928 220.199 992.669 220.248L1253.28 236.137C1253.31 236.137 1253.33 236.137 1253.36 236.137Z" fill="#141414"/>
<path d="M1254.37 306.444C1254.74 306.444 1255.12 306.292 1255.39 305.984L1265.19 294.827L1293.32 256.542C1293.76 255.942 1293.63 255.088 1293.03 254.649C1292.43 254.206 1291.59 254.33 1291.14 254.936L1263.08 293.134L1253.35 304.199C1252.86 304.762 1252.91 305.616 1253.47 306.108C1253.74 306.33 1254.06 306.444 1254.37 306.444Z" fill="#EB5632"/>
<path d="M1102.94 226.673L1064.07 260.814C1064.07 260.814 1057.82 267.742 1044.8 267.915C1031.78 268.088 1021.47 267.915 1021.47 267.915C1021.47 267.915 1016.4 266.731 1019.45 263.518C1022.49 260.306 1060.52 223.292 1060.52 223.292L1102.94 226.673Z" fill="black"/>
<path d="M360.898 71.3013L367.658 151.072H364.051L357.745 77.1584L360.898 71.3013Z" fill="#070606"/>
<path d="M903.067 168.422C903.067 168.422 854.394 167.297 849.434 166.842C844.475 166.388 838.618 162.559 837.715 159.406C836.812 156.253 836.812 125.832 841.544 119.072C846.276 112.312 855.513 110.511 864.08 111.187C872.641 111.863 904.641 116.368 907.572 133.723C910.504 151.078 903.289 153.554 903.289 153.554H914.333C914.333 153.554 912.532 162.565 903.067 168.422Z" fill="#070606"/>
<path d="M911.969 133.381L908.589 180.362L972.135 183.742L972.47 173.943L911.969 133.381Z" fill="#070606"/>
<path d="M743.974 206.051C743.974 206.051 742.622 211.011 739.918 211.908C737.214 212.811 692.596 210.329 692.596 210.329L688.313 214.158C688.313 214.158 662.397 209.653 661.045 208.523C659.693 207.398 659.017 199.962 662.397 198.831C665.777 197.706 732.065 201.043 736.76 202.211C741.286 203.347 742.849 203.347 743.974 206.051Z" fill="#110F0F"/>
<path d="M410.922 192.531C410.922 192.531 409.57 197.491 406.866 198.388C404.162 199.291 359.545 196.809 359.545 196.809L355.261 200.638C355.261 200.638 329.345 196.133 327.993 195.003C326.641 193.878 325.965 186.442 329.345 185.311C332.725 184.186 399.014 187.523 403.708 188.691C408.234 189.827 409.797 189.827 410.922 192.531Z" fill="#110F0F"/>
<g opacity="0.23">
<path d="M964.358 412.238C964.358 412.238 915.008 424.071 862.955 424.407C810.901 424.742 600.658 416.522 567.305 413.818C533.953 411.114 504.208 410.21 479.871 399.394C542.974 398.945 964.358 412.238 964.358 412.238Z" fill="#EEF7F6"/>
</g>
<g opacity="0.23">
<path d="M1325.13 233.768C1325.13 233.768 1308.23 224.077 1294.49 222.049C1280.74 220.02 666.012 181.26 642.8 180.135C619.589 179.01 423.32 172.023 402.136 171.347C380.953 170.671 286.309 167.967 267.381 167.064C248.452 166.16 101.079 163.235 88.6836 163.911C76.2881 164.587 70.88 167.967 67.9543 169.995C65.0284 172.023 59.393 178.556 59.393 178.556L52.1839 177.88C52.1839 177.88 55.7912 165.712 75.1686 163.235C94.5462 160.758 145.475 160.082 162.376 160.082C179.276 160.082 281.356 158.957 308.169 160.985C334.983 163.013 600.66 168.87 642.573 170.676C684.487 172.477 911.181 188.253 942.727 190.054C974.273 191.855 1207.28 211.687 1218.1 211.687C1228.91 211.687 1311.39 214.163 1325.13 233.768Z" fill="#EEF7F6"/>
</g>
<g opacity="0.23">
<path d="M1074.55 310.159L1064.41 324.355L434.356 313.539L424.216 296.638L1074.55 310.159Z" fill="#EEF7F6"/>
</g>
<path d="M140.964 181.493C140.964 181.493 129.023 198.393 119.558 201.773C110.094 205.153 92.0685 201.773 81.025 207.63C69.9815 213.488 52.8592 233.995 52.8592 233.995L13.5363 231.74C13.5363 231.74 10.4914 199.967 15.229 176.306C26.4942 177.436 140.964 181.493 140.964 181.493Z" fill="#A0051F"/>
<path d="M26.5962 221.232L40.6792 221.508C43.1669 221.557 45.222 219.578 45.2707 217.09L45.8277 188.486C45.8764 185.998 43.8969 183.943 41.4092 183.894L27.3262 183.619C24.8385 183.57 22.7834 185.549 22.7347 188.037L22.1777 216.641C22.129 219.129 24.1085 221.184 26.5962 221.232Z" fill="#C6D0D2"/>
<path d="M26.7855 217.403C25.2279 217.371 23.9947 216.089 24.0218 214.532L24.4869 190.692C24.5193 189.135 25.8011 187.902 27.3587 187.929C28.9162 187.961 30.1492 189.243 30.1222 190.8L29.6571 214.64C29.6246 216.197 28.343 217.436 26.7855 217.403Z" fill="#A0051F"/>
<path d="M1397.47 279.797C1397.47 279.797 1393.41 282.556 1387.1 282.783C1380.79 283.01 1354.42 283.01 1346.77 281.203C1339.1 279.402 1319.28 258.895 1308.68 257.543C1298.09 256.191 1276.68 252.135 1271.73 250.334C1266.77 248.533 1250.77 233.882 1250.77 233.882C1250.77 233.882 1335.27 239.517 1349.7 239.966C1364.12 240.415 1373.64 238.895 1373.64 238.895C1373.64 238.895 1397.01 271.853 1397.47 279.797Z" fill="#EEEDF3"/>
<path d="M1353.25 274.162H1366.93C1370.54 274.162 1373.47 271.236 1373.47 267.629V249.825C1373.47 246.218 1370.54 243.292 1366.93 243.292H1353.25C1349.64 243.292 1346.71 246.218 1346.71 249.825V267.629C1346.71 271.236 1349.63 274.162 1353.25 274.162Z" fill="#5A7375"/>
<path d="M1357.52 269.43C1361.13 269.43 1364.06 266.504 1364.06 262.897V256.023C1364.06 252.416 1361.13 249.49 1357.52 249.49C1353.91 249.49 1350.99 252.416 1350.99 256.023V262.897C1350.99 266.504 1353.91 269.43 1357.52 269.43Z" fill="#EEEDF3"/>
<path d="M1342.26 243.908L1263.5 238.333C1263.5 238.333 1271.27 246.785 1278.37 247.288C1285.46 247.791 1315.72 252.188 1319.44 254.216C1323.16 256.244 1334.99 269.932 1341.91 271.793L1342.26 243.908Z" fill="#5A7375"/>
<path d="M1084.86 233.6L1081.14 237.824L999.178 233.768L999.01 228.359L1084.86 233.6Z" fill="#5A7375"/>
<path d="M1076.41 242.838L1073.37 245.542L999.009 242.838L998.669 237.262L1076.41 242.838Z" fill="#5A7375"/>
</svg>
